<?xml version="1.0" encoding="utf-8"?>
<!-- Generator: Adobe Illustrator 26.0.2, SVG Export Plug-In . SVG Version: 6.00 Build 0)  -->
<svg version="1.1" id="Logo" xmlns="http://www.w3.org/2000/svg" xmlns:xlink="http://www.w3.org/1999/xlink" x="0px" y="0px"
	 viewBox="0 0 452.1 281.6" style="enable-background:new 0 0 452.1 281.6;" xml:space="preserve">
<style type="text/css">
	.st0{fill:#FFDC00;}
	.st1{fill:#004C9B;}
	.st2{fill:#FFFFFF;}
</style>
<g>
	<g>
		<rect x="296.8" y="39.5" class="st0" width="115.7" height="176.6"/>
	</g>
	<g>
		<rect x="39.6" y="65.4" class="st1" width="347" height="176.6"/>
	</g>
	<path class="st2" d="M91.8,92.5H81.5L81,93v28.9l-0.5,0.5h-6.2l-0.5-0.5V93l-0.5-0.5H62.9L62.4,92v-5.2l0.5-0.5h28.9l0.5,0.5V92
		L91.8,92.5z"/>
	<path class="st2" d="M100.7,122.9c-7.7,0-12.9-5.2-12.9-13.4s5.2-13.4,12.9-13.4s12.9,5.2,12.9,13.4S108.5,122.9,100.7,122.9z
		 M100.7,102.3c-3.6,0-5.7,2.6-5.7,7.2s2.1,7.2,5.7,7.2c3.6,0,5.7-2.6,5.7-7.2S104.3,102.3,100.7,102.3z"/>
	<path class="st2" d="M134.6,102.8H131c-4.1,0-5.7,2.1-5.7,6.7v12.4l-0.5,0.5h-6.2l-0.5-0.5V97.2l0.5-0.5h5.7l0.5,0.5l0.5,1.5h0.5
		c0,0,1-2.1,5.7-2.1h3.1l0.5,0.5v5.2L134.6,102.8z"/>
	<path class="st2" d="M148.9,122.9c-7.7,0-12.9-5.2-12.9-13.4s5.2-13.4,12.9-13.4s12.9,5.2,12.9,13.4S156.6,122.9,148.9,122.9z
		 M148.9,102.3c-3.6,0-5.7,2.6-5.7,7.2s2.1,7.2,5.7,7.2c3.6,0,5.7-2.6,5.7-7.2S152.5,102.3,148.9,102.3z"/>
	<path class="st2" d="M189.8,122.4h-6.2l-0.5-0.5v-15c0-2.6-1-4.6-4.1-4.6c-3.6,0-5.7,2.1-5.7,6.7v12.9l-0.5,0.5h-6.2l-0.5-0.5V97.2
		l0.5-0.5h5.7l0.5,0.5l0.5,1.5h0.5c1-1,3.1-2.6,6.7-2.6c6.2,0,9.8,4.1,9.8,10.3v15.5L189.8,122.4z"/>
	<path class="st2" d="M205.1,114.7c0,1,0.5,1.5,1.5,1.5h4.6l0.5,0.5v5.2l-0.5,0.5h-4.6c-4.6,0-8.8-2.1-8.8-7.7v-11.3l-0.5-0.5h-3.6
		l-0.5-0.5v-5.2l0.5-0.5h3.6l0.5-0.5v-4.6l0.5-0.5h6.2l0.5,0.5v4.6l0.5,0.5h5.7l0.5,0.5v5.2l-0.5,0.5h-5.7l-0.5,0.5V114.7z"/>
	<path class="st2" d="M227.1,122.9c-7.7,0-12.9-5.2-12.9-13.4s5.2-13.4,12.9-13.4c7.7,0,12.9,5.2,12.9,13.4S234.9,122.9,227.1,122.9
		z M227.1,102.3c-3.6,0-5.7,2.6-5.7,7.2s2.1,7.2,5.7,7.2c3.6,0,5.7-2.6,5.7-7.2S230.7,102.3,227.1,102.3z"/>
	<path class="st2" d="M94.4,202.2c0,9.3-5.2,14.4-14.4,14.4s-14.4-5.2-14.4-14.4v-21.7L66,180h6.2l0.5,0.5v21.7
		c0,5.2,2.1,8.3,7.2,8.3c5.2,0,7.2-3.1,7.2-8.3v-21.7l0.5-0.5h6.2l0.5,0.5V202.2z"/>
	<path class="st2" d="M123.4,216.1h-6.2l-0.5-0.5v-15c0-2.6-1-4.6-4.1-4.6c-3.6,0-5.7,2.1-5.7,6.7v12.9l-0.5,0.5h-6.2l-0.5-0.5
		v-24.8l0.5-0.5h5.7l0.5,0.5l0.5,1.5h0.5c1-1,3.1-2.6,6.7-2.6c6.2,0,9.8,4.1,9.8,10.3v15.5L123.4,216.1z"/>
	<path class="st2" d="M136.1,186.2h-6.2l-0.5-0.5v-5.2l0.5-0.5h6.2l0.5,0.5v5.2L136.1,186.2z M136.1,216.1h-6.2l-0.5-0.5v-24.8
		l0.5-0.5h6.2l0.5,0.5v24.8L136.1,216.1z"/>
	<path class="st2" d="M156.3,215.6l-0.5,0.5h-5.7l-0.5-0.5l-8.8-19.6v-5.2l0.5-0.5h4.6l0.5,0.5l6.2,16h0.5l6.2-16l0.5-0.5h4.6
		l0.5,0.5v5.2L156.3,215.6z"/>
	<path class="st2" d="M192.5,205.3l-0.5,0.5h-16l-0.5,0.5c0,1,1,4.1,5.2,4.1c1.5,0,3.1-0.5,3.6-1.5l0.5-0.5h6.2l0.5,0.5
		c-0.5,3.1-3.1,7.7-10.8,7.7c-8.8,0-12.9-6.2-12.9-13.4c0-7.2,4.1-13.4,12.4-13.4c8.3,0,12.4,6.2,12.4,13.4V205.3z M184.7,200.1
		c0-0.5-0.5-4.1-4.6-4.1c-4.1,0-4.6,3.6-4.6,4.1l0.5,0.5h8.3L184.7,200.1z"/>
	<path class="st2" d="M213.2,196.5h-3.6c-4.1,0-5.7,2.1-5.7,6.7v12.4l-0.5,0.5h-6.2l-0.5-0.5v-24.8l0.5-0.5h5.7l0.5,0.5l0.5,1.5h0.5
		c0,0,1-2.1,5.7-2.1h3.1l0.5,0.5v5.2L213.2,196.5z"/>
	<path class="st2" d="M227.5,216.6c-7.2,0-11.3-3.6-11.3-8.8l0.5-0.5h6.2l0.5,0.5c0,2.1,1.5,2.6,4.1,2.6s4.1-0.5,4.1-2.1
		c0-2.1-2.1-2.1-5.2-2.6s-9.8-2.1-9.8-8.3c0-4.1,3.1-7.7,10.8-7.7c6.2,0,10.8,2.6,10.8,7.7l-0.5,0.5h-6.2l-0.5-0.5
		c0-1-1-1.5-3.6-1.5s-3.6,0.5-3.6,2.1c0,2.1,3.1,2.1,6.2,2.6c3.1,0.5,8.8,1.5,8.8,7.7C238.8,212.5,235.7,216.6,227.5,216.6z"/>
	<path class="st2" d="M249.7,186.2h-6.2l-0.5-0.5v-5.2l0.5-0.5h6.2l0.5,0.5v5.2L249.7,186.2z M249.7,216.1h-6.2l-0.5-0.5v-24.8
		l0.5-0.5h6.2l0.5,0.5v24.8L249.7,216.1z"/>
	<path class="st2" d="M266.1,208.4c0,1,0.5,1.5,1.5,1.5h4.6l0.5,0.5v5.2l-0.5,0.5h-4.6c-4.6,0-8.8-2.1-8.8-7.7V197l-0.5-0.5h-3.6
		l-0.5-0.5v-5.2l0.5-0.5h3.6l0.5-0.5v-4.6l0.5-0.5h6.2l0.5,0.5v4.6l0.5,0.5h5.7l0.5,0.5v5.2l-0.5,0.5h-5.7l-0.5,0.5V208.4z"/>
	<path class="st2" d="M292.2,216.6c-2.1,5.2-4.1,8.3-11.3,8.3h-2.6l-0.5-0.5v-5.2l0.5-0.5h2.6c2.6,0,3.1-0.5,3.6-2.1v-0.5l-8.3-20.1
		v-5.2l0.5-0.5h4.6l0.5,0.5l6.2,17.5h0.5l6.2-17.5l0.5-0.5h4.6l0.5,0.5v5.2L292.2,216.6z"/>
	<polygon class="st2" points="101.1,169.3 94.9,169.3 94.4,168.8 94.4,149.1 93.9,149.1 86.9,168.8 86.4,169.3 80.7,169.3 
		80.2,168.8 73.2,149.1 72.7,149.1 72.7,168.8 72.2,169.3 66,169.3 65.5,168.8 65.5,133.7 66,133.2 73.8,133.2 74.3,133.7 83.4,159 
		83.9,159 92.8,133.7 93.4,133.2 101.1,133.2 101.6,133.7 101.6,168.8 	"/>
	<path class="st2" d="M130.8,158.4l-0.5,0.5h-16l-0.5,0.5c0,1,1,4.1,5.2,4.1c1.5,0,3.1-0.5,3.6-1.5l0.5-0.5h6.2l0.5,0.5
		c-0.5,3.1-3.1,7.7-10.8,7.7c-8.8,0-12.9-6.2-12.9-13.4c0-7.2,4.1-13.4,12.4-13.4s12.4,6.2,12.4,13.4V158.4z M123,153.3
		c0-0.5-0.5-4.1-4.6-4.1c-4.1,0-4.6,3.6-4.6,4.1l0.5,0.5h8.3L123,153.3z"/>
	<path class="st2" d="M144.5,161.5c0,1,0.5,1.5,1.5,1.5h4.6l0.5,0.5v5.2l-0.5,0.5h-4.6c-4.6,0-8.8-2.1-8.8-7.7v-11.3l-0.5-0.5h-3.6
		l-0.5-0.5V144l0.5-0.5h3.6l0.5-0.5v-4.6l0.5-0.5h6.2l0.5,0.5v4.6l0.5,0.5h5.7l0.5,0.5v5.2l-0.5,0.5H145l-0.5,0.5V161.5z"/>
	<path class="st2" d="M172.7,149.7h-3.6c-4.1,0-5.7,2.1-5.7,6.7v12.4l-0.5,0.5h-6.2l-0.5-0.5V144l0.5-0.5h5.7l0.5,0.5l0.5,1.5h0.5
		c0,0,1-2.1,5.7-2.1h3.1l0.5,0.5v5.2L172.7,149.7z"/>
	<path class="st2" d="M187,169.8c-7.7,0-12.9-5.2-12.9-13.4c0-8.3,5.2-13.4,12.9-13.4c7.7,0,12.9,5.2,12.9,13.4
		C199.9,164.6,194.7,169.8,187,169.8z M187,149.2c-3.6,0-5.7,2.6-5.7,7.2c0,4.6,2.1,7.2,5.7,7.2s5.7-2.6,5.7-7.2
		C192.7,151.7,190.6,149.2,187,149.2z"/>
	<path class="st2" d="M218.7,169.8c-4.6,0-6.7-2.6-6.7-2.6h-0.5v12.3l-0.5,0.5h-6.2l-0.5-0.5V144l0.5-0.5h5.7l0.5,0.5l0.5,1.5h0.5
		c0,0,2.1-2.6,6.7-2.6c6.2,0,11.3,5.2,11.3,13.4C230,164.6,224.8,169.8,218.7,169.8z M217.1,149.2c-4.1,0-5.7,3.1-5.7,7.2
		c0,4.1,1.5,7.2,5.7,7.2c4.1,0,5.7-3.1,5.7-7.2C222.8,152.3,221.2,149.2,217.1,149.2z"/>
	<path class="st2" d="M245.8,169.8c-7.7,0-12.9-5.2-12.9-13.4c0-8.3,5.2-13.4,12.9-13.4c7.7,0,12.9,5.2,12.9,13.4
		C258.7,164.6,253.6,169.8,245.8,169.8z M245.8,149.2c-3.6,0-5.7,2.6-5.7,7.2c0,4.6,2.1,7.2,5.7,7.2s5.7-2.6,5.7-7.2
		C251.5,151.7,249.4,149.2,245.8,149.2z"/>
	<path class="st2" d="M269.8,169.3h-6.2l-0.5-0.5v-35.1l0.5-0.5h6.2l0.5,0.5v35.1L269.8,169.3z"/>
	<path class="st2" d="M283,139.4h-6.2l-0.5-0.5v-5.2l0.5-0.5h6.2l0.5,0.5v5.2L283,139.4z M283,169.3h-6.2l-0.5-0.5V144l0.5-0.5h6.2
		l0.5,0.5v24.8L283,169.3z"/>
	<path class="st2" d="M299.3,161.5c0,1,0.5,1.5,1.5,1.5h4.6l0.5,0.5v5.2l-0.5,0.5h-4.6c-4.6,0-8.8-2.1-8.8-7.7v-11.3l-0.5-0.5H288
		l-0.5-0.5V144l0.5-0.5h3.6l0.5-0.5v-4.6l0.5-0.5h6.2l0.5,0.5v4.6l0.5,0.5h5.7l0.5,0.5v5.2l-0.5,0.5h-5.7l-0.5,0.5V161.5z"/>
	<path class="st2" d="M331.1,169.3h-5.7l-0.5-0.5l-0.5-1h-0.5c0,0-2.1,2.1-5.7,2.1c-5.7,0-9.3-3.1-9.3-8.3c0-7.7,7.2-8.8,11.3-8.8
		c2.1,0,3.6,0.5,3.6,0.5l0.5-0.5v-0.5c0-2.6-0.5-3.1-3.6-3.1c-1.5,0-3.1,0-3.6,1.5l-0.5,0.5h-6.2l-0.5-0.5c0-3.1,2.6-7.7,10.8-7.7
		c8.3,0,10.8,4.1,10.8,11.9v13.9L331.1,169.3z M323.9,158.4c0,0-1-0.5-3.1-0.5c-3.1,0-4.6,1-4.6,3.1c0,1.5,1,2.6,3.6,2.6
		c2.6,0,4.6-1.5,4.6-3.6v-1L323.9,158.4z"/>
	<path class="st2" d="M360.7,169.3h-6.2l-0.5-0.5v-15c0-2.6-1-4.6-4.1-4.6c-3.6,0-5.7,2.1-5.7,6.7v12.9l-0.5,0.5h-6.2l-0.5-0.5V144
		l0.5-0.5h5.7l0.5,0.5l0.5,1.5h0.5c1-1,3.1-2.6,6.7-2.6c6.2,0,9.8,4.1,9.8,10.3v15.5L360.7,169.3z"/>
</g>
</svg>
